<svg version="1.0" xmlns="http://www.w3.org/2000/svg"
 width="751.000000pt" height="751.000000pt" viewBox="0 0 751.000000 751.000000"
 preserveAspectRatio="xMidYMid meet">
<metadata>
Created by potrace 1.14, written by Peter Selinger 2001-2017
</metadata>
<g transform="translate(0.000000,751.000000) scale(0.100000,-0.100000)"
fill="#000000" stroke="none">
<path d="M0 3755 l0 -3755 1210 0 c666 0 1210 1 1210 3 0 1 21 110 46 242 89
466 104 607 104 973 0 214 2 262 14 262 7 0 33 -17 57 -38 71 -62 183 -134
472 -305 21 -12 54 -32 73 -44 19 -13 41 -23 48 -23 7 0 21 -9 32 -21 10 -12
37 -30 59 -41 22 -12 60 -35 85 -52 67 -47 131 -76 167 -76 22 0 37 -7 45 -20
7 -11 22 -20 33 -19 11 0 14 3 8 6 -7 2 -13 11 -13 19 0 11 18 14 88 13 48 0
108 -5 135 -10 26 -5 81 -9 123 -10 70 -1 80 1 167 45 50 26 124 69 162 96 39
27 91 61 116 74 25 13 63 34 85 47 21 12 59 33 84 47 157 87 418 284 573 431
l47 45 0 -403 c0 -322 3 -409 14 -434 8 -18 23 -99 35 -182 11 -82 41 -256 66
-385 25 -129 45 -236 45 -237 0 -2 477 -3 1060 -3 l1060 0 0 3755 0 3755
-3755 0 -3755 0 0 -3755z m3880 3249 c223 -2 411 -4 418 -4 6 0 12 -9 12 -20
0 -11 4 -20 8 -20 15 0 32 -91 32 -175 0 -71 -3 -86 -18 -94 -25 -13 -983 -4
-997 10 -11 11 -20 197 -11 234 3 13 18 28 33 33 18 7 22 11 11 11 -11 1 -18
9 -18 22 0 20 4 20 63 14 34 -3 244 -8 467 -11z m-666 -196 c3 -29 6 -86 6
-125 0 -85 -15 -108 -77 -118 -60 -10 -263 -81 -343 -121 -19 -9 -84 -46 -143
-82 -119 -72 -207 -144 -207 -171 0 -20 77 -96 142 -140 26 -17 51 -39 56 -48
9 -14 41 -17 268 -20 150 -2 270 -8 286 -14 19 -8 306 -9 944 -5 864 5 918 6
934 23 10 10 45 40 79 67 68 55 84 84 56 101 -26 15 -43 34 -75 86 -42 69
-167 171 -274 223 -103 51 -181 76 -311 101 -53 10 -95 24 -102 33 -9 11 -13
55 -13 134 0 138 0 138 94 119 272 -53 338 -78 496 -183 146 -99 276 -281 309
-435 20 -98 -16 -201 -83 -237 -20 -11 -36 -23 -36 -27 0 -4 44 -10 98 -12
247 -14 452 -76 567 -173 140 -117 204 -206 261 -363 24 -65 33 -181 15 -181
-4 0 -20 9 -34 20 -23 18 -106 50 -131 50 -5 0 -6 -48 -2 -107 22 -385 11
-1024 -19 -1148 -8 -33 -15 -68 -15 -77 0 -22 38 -58 62 -58 10 0 27 -5 38
-12 16 -10 23 -9 43 10 29 28 37 28 37 -1 0 -26 -60 -126 -77 -127 -6 0 -39
21 -73 48 -34 26 -67 51 -73 55 -8 5 -31 -9 -64 -40 -29 -26 -80 -62 -115 -80
-154 -77 -81 -73 -1593 -81 -1780 -9 -1895 -9 -2020 13 -136 24 -191 50 -266
128 l-63 65 -56 -38 c-87 -59 -149 -92 -161 -84 -14 9 -39 68 -39 94 0 16 6
20 33 20 35 0 143 35 165 53 10 8 12 22 8 47 -36 197 -37 216 -40 778 -3 612
0 582 -58 582 -21 0 -31 -8 -43 -30 -9 -17 -22 -39 -30 -48 -8 -9 -23 -28 -34
-42 -10 -14 -23 -22 -27 -18 -13 14 51 277 84 343 108 215 288 349 527 394
102 19 197 31 262 31 34 0 65 5 68 10 3 6 -3 10 -14 10 -38 0 -110 38 -124 67
-27 52 -28 86 -7 168 73 291 330 506 710 595 30 7 69 16 85 21 17 4 46 8 66 8
l36 1 7 -52z m-1848 -1593 c12 -19 15 -41 12 -84 -5 -70 -21 -96 -49 -80 -13
6 -19 6 -19 -1 0 -5 -4 -10 -10 -10 -16 0 -12 101 6 153 18 53 36 59 60 22z
m-65 -262 c-9 -16 -10 -16 -11 -1 0 9 3 25 7 35 7 16 8 17 11 1 2 -10 -1 -25
-7 -35z m-272 -418 c9 -1 15 -10 14 -21 -2 -11 0 -36 3 -57 5 -34 9 -38 28
-33 32 8 82 -8 77 -25 -2 -8 -4 -72 -5 -144 l-1 -130 -38 -3 c-33 -3 -38 0
-48 25 -6 15 -9 61 -7 101 2 39 0 72 -3 72 -17 0 -24 -380 -21 -1150 2 -668 6
-848 17 -895 9 -38 10 -64 4 -71 -15 -18 -182 -7 -243 17 -40 15 -58 29 -83
66 -29 43 -34 59 -39 140 -4 50 -10 96 -13 102 -4 5 -45 15 -91 20 -59 8 -89
16 -97 28 -10 13 -13 188 -12 802 1 432 4 800 8 816 l6 30 97 0 c66 0 101 -4
110 -13 9 -9 14 -57 16 -165 1 -84 5 -162 8 -175 4 -20 7 -21 19 -9 9 9 48 16
115 20 56 3 106 9 111 14 5 5 8 100 7 214 l-3 204 -110 2 c-60 1 -122 6 -137
12 -32 12 -35 34 -16 109 14 57 35 91 62 103 18 7 209 3 265 -6z m5591 -21 c0
-3 -10 -8 -22 -13 l-22 -8 22 -12 c18 -10 23 -9 28 4 5 12 26 15 115 15 97 0
111 -2 130 -21 29 -29 47 -77 55 -143 l7 -55 -119 -3 -119 -3 2 -65 c4 -159 5
-316 2 -333 -4 -16 5 -18 81 -21 47 -2 88 -4 92 -5 4 -1 15 -18 25 -38 l17
-38 8 130 c5 72 7 165 4 207 -5 69 -3 79 14 88 21 11 76 13 144 4 42 -6 47 -9
56 -43 13 -49 14 -1585 0 -1611 -7 -14 -27 -20 -77 -26 -93 -9 -113 -18 -113
-48 0 -14 -4 -27 -9 -30 -11 -7 -25 22 -22 45 1 8 -2 26 -7 40 -8 20 -11 11
-17 -49 -4 -39 -11 -75 -17 -78 -12 -8 10 -34 28 -34 11 0 13 -8 8 -27 -11
-47 -34 -74 -82 -95 -53 -24 -178 -44 -216 -34 -24 6 -26 10 -26 64 0 90 13
106 90 113 46 4 53 6 25 7 -22 1 -51 9 -64 18 l-24 17 5 359 c3 253 8 362 16
370 9 9 12 -31 11 -163 0 -96 4 -190 9 -209 8 -34 10 -35 51 -32 23 1 67 9 98
17 49 13 60 13 78 1 22 -14 22 -14 29 52 10 112 5 535 -6 482 -15 -73 -11 -71
-147 -75 l-124 -3 7 518 c5 359 4 520 -3 525 -7 4 -11 -14 -11 -52 -1 -93 -7
-149 -18 -169 -9 -15 -12 -12 -31 25 -20 38 -22 56 -21 224 0 100 0 184 0 187
-8 34 -7 36 26 32 19 -2 34 -6 34 -8z m-5870 -306 c0 -45 -2 -79 -4 -77 -8 10
-14 159 -5 159 5 0 9 -37 9 -82z m5317 -785 c5 -13 -66 -43 -85 -35 -9 3 0 13
25 27 40 24 54 26 60 8z m-2745 -181 c9 -78 32 -127 78 -163 33 -25 43 -27
149 -31 l115 -3 29 55 c39 75 48 77 62 13 5 -25 3 -32 -7 -28 -7 3 -18 1 -23
-3 -19 -13 -47 -88 -48 -128 -2 -38 -1 -39 38 -48 22 -4 49 -12 60 -16 29 -12
110 -22 188 -24 52 -1 67 -4 67 -16 0 -12 2 -13 9 -1 9 13 36 12 72 -3 23 -10
29 12 18 69 -8 43 -16 60 -54 111 -19 26 7 34 76 22 49 -8 84 -7 136 1 86 15
94 26 102 148 l6 88 388 6 c214 4 408 10 432 14 27 4 53 2 66 -6 22 -11 22
-13 17 -221 -3 -115 -10 -214 -15 -219 -6 -6 -14 7 -22 33 -33 108 -55 168
-64 168 -5 0 -6 -10 -2 -22 24 -78 36 -158 39 -265 3 -89 0 -123 -8 -123 -6 0
-18 21 -25 48 -21 76 -33 102 -46 102 -23 0 -26 -31 -6 -69 10 -20 31 -62 45
-95 26 -56 28 -58 45 -42 18 17 19 16 26 -24 4 -23 17 -53 29 -67 l23 -26 14
74 c12 65 17 74 37 77 31 5 53 -15 48 -42 -3 -11 -10 -93 -16 -181 -21 -295
-60 -478 -132 -620 -35 -70 -52 -90 -132 -158 -225 -191 -458 -360 -625 -454
-142 -80 -173 -101 -256 -168 -27 -22 -68 -50 -90 -62 -50 -27 -163 -47 -213
-39 -20 4 -116 10 -212 14 -160 6 -180 9 -230 33 -30 15 -68 38 -85 53 -16 14
-38 29 -47 32 -20 6 -24 53 -8 84 8 15 16 17 33 11 12 -4 39 -11 60 -15 34 -6
37 -5 37 16 0 29 -9 42 -37 56 -12 7 -24 22 -26 34 -4 20 -4 20 -6 -4 0 -15
-5 -30 -11 -33 -16 -10 -48 13 -53 37 -3 22 -4 22 -11 3 -4 -11 -10 -27 -13
-35 -4 -12 -7 -12 -19 4 -8 11 -14 28 -14 37 0 10 -4 21 -10 24 -6 4 -10 -9
-10 -30 0 -29 -3 -36 -15 -31 -8 3 -15 1 -15 -4 0 -25 -31 -7 -36 20 -7 33
-18 39 -28 14 -8 -22 -29 -13 -37 17 -6 20 -7 18 -8 -13 -1 -21 -5 -38 -9 -38
-14 0 -32 23 -32 42 0 14 -6 16 -28 12 -36 -7 -87 14 -175 74 -38 26 -86 58
-106 72 -211 144 -317 253 -391 399 -51 103 -76 183 -95 311 -20 134 -40 448
-31 483 7 30 27 35 46 12 7 -9 18 -14 23 -12 12 4 17 270 6 329 -11 64 6 61
46 -8 22 -37 41 -62 42 -57 2 6 -8 46 -23 89 -21 64 -25 89 -20 135 4 30 3 66
-2 80 -8 21 -10 18 -16 -24 -5 -30 -12 -47 -21 -47 -25 0 -35 37 -35 129 l0
90 462 1 c254 0 464 3 467 6 3 3 17 4 31 2 23 -3 26 -8 32 -66z m696 -124 c7
-7 12 -21 12 -32 0 -18 -1 -19 -20 -1 -20 18 -27 45 -12 45 4 0 13 -5 20 -12z
m2866 -38 c6 -6 4 -15 -4 -25 -10 -12 -34 -15 -110 -15 -102 0 -117 6 -98 43
8 15 20 17 106 12 53 -3 101 -10 106 -15z m-3048 -64 c40 -40 39 -96 -2 -96
-13 0 -30 44 -26 67 1 6 -7 14 -18 18 -19 6 -26 25 -14 38 9 9 36 -4 60 -27z
m141 18 c9 -8 24 -13 35 -11 14 4 24 -5 38 -34 11 -21 25 -39 30 -39 12 0 13
-47 1 -54 -5 -3 -14 8 -21 24 -17 41 -31 38 -26 -5 6 -49 -17 -46 -31 5 -6 23
-6 40 -1 40 5 0 6 5 3 10 -8 14 -62 13 -71 -1 -4 -7 -14 -2 -29 15 -12 14 -24
25 -26 23 -2 -1 2 3 10 10 8 7 17 10 21 8 5 -3 10 2 14 10 7 20 33 19 53 -1z
m-21 -121 c9 -33 -1 -39 -23 -14 -9 12 -23 21 -30 21 -7 0 -13 4 -13 8 0 31
58 18 66 -15z m2154 -102 c0 -54 -4 -91 -12 -99 -7 -7 -38 -12 -70 -12 -66 0
-79 13 -59 57 24 52 117 157 131 148 6 -3 10 -46 10 -94z m-4490 19 c0 -5 -11
-10 -25 -10 -14 0 -25 5 -25 10 0 6 11 10 25 10 14 0 25 -4 25 -10z m25 0 c3
-5 1 -10 -4 -10 -6 0 -11 5 -11 10 0 6 2 10 4 10 3 0 8 -4 11 -10z m39 -66 c3
-9 6 -33 6 -54 0 -28 -5 -40 -17 -43 -24 -7 -112 -1 -120 7 -8 7 -5 85 3 98 3
4 31 8 64 8 43 0 59 -4 64 -16z m3965 -138 c6 -7 9 -26 7 -42 -3 -16 -10 -77
-17 -136 -7 -63 -18 -117 -28 -131 -9 -14 -51 -55 -95 -91 -56 -48 -82 -64
-89 -57 -8 8 -7 61 1 183 7 95 12 195 12 221 0 40 4 49 23 57 36 14 173 12
186 -4z m-3415 -22 c11 -11 16 -35 16 -82 0 -37 5 -132 11 -211 5 -79 8 -146
5 -149 -3 -2 -36 11 -73 29 -76 38 -150 106 -176 161 -19 40 -51 233 -43 255
8 21 239 19 260 -3z"/>
<path d="M4401 5791 c-40 -26 10 -30 342 -30 188 -1 425 -3 525 -6 135 -4 183
-3 180 6 -5 15 -37 16 -528 24 -234 3 -443 8 -465 11 -22 2 -46 0 -54 -5z"/>
<path d="M2478 5773 c-50 -4 -63 -17 -28 -28 20 -6 622 3 628 10 2 2 1 8 -3
14 -6 10 -478 13 -597 4z"/>
<path d="M2370 5539 c-276 -6 -302 -10 -391 -52 -76 -35 -114 -75 -154 -159
-30 -66 -36 -89 -49 -232 -18 -185 -21 -599 -6 -790 14 -173 43 -312 72 -345
53 -62 130 -131 170 -155 40 -23 78 -31 198 -43 81 -7 3194 -8 3245 0 28 4 70
10 94 12 60 7 117 23 133 38 7 6 30 21 51 33 45 24 154 145 173 190 26 63 34
214 34 678 0 489 0 489 -45 591 -26 57 -111 143 -170 170 -22 11 -42 22 -45
26 -6 8 -55 16 -180 29 -108 11 -2722 18 -3130 9z m-420 -143 c0 -17 -39 -65
-40 -48 0 6 -8 12 -17 12 -14 0 -12 4 7 25 26 27 50 33 50 11z m-84 -83 c-10
-10 -19 5 -10 18 6 11 8 11 12 0 2 -7 1 -15 -2 -18z m4051 -195 c-3 -8 -6 -5
-6 6 -1 11 2 17 5 13 3 -3 4 -12 1 -19z m-4057 -213 c0 -8 -4 -17 -10 -20 -6
-4 -10 5 -10 20 0 15 4 24 10 20 6 -3 10 -12 10 -20z m-43 -67 c-3 -7 -5 -2
-5 12 0 14 2 19 5 13 2 -7 2 -19 0 -25z m3 -339 c0 -5 -4 -9 -10 -9 -5 0 -10
7 -10 16 0 8 5 12 10 9 6 -3 10 -10 10 -16z m156 -578 c-4 -5 0 -12 6 -14 7
-3 3 -6 -9 -6 -16 -1 -21 3 -17 14 4 8 10 15 16 15 5 0 7 -4 4 -9z m66 -95
c10 6 11 4 0 -7 -10 -11 -15 -10 -30 6 -15 17 -15 18 0 6 9 -7 23 -9 30 -5z"/>
<path d="M718 3322 c-2 -9 -5 -135 -7 -279 l-3 -263 31 0 c18 0 43 -7 56 -16
30 -19 157 -16 177 4 15 15 19 429 5 495 -7 32 -15 41 -45 54 -35 15 -123 14
-164 -2 -8 -3 -22 1 -31 9 -13 14 -15 13 -19 -2z m230 -219 c3 -23 2 -23 -102
-23 -64 0 -106 4 -106 10 0 6 -1 13 -2 17 -5 13 53 21 132 20 70 -2 75 -4 78
-24z"/>
<path d="M719 2655 c-11 -37 -11 -233 1 -254 9 -19 20 -21 93 -20 45 0 105 4
132 9 l50 7 -55 3 c-30 1 -80 1 -110 0 -84 -3 -94 13 -100 158 -3 65 -8 108
-11 97z"/>
<path d="M6912 3580 c0 -14 2 -19 5 -12 2 6 2 18 0 25 -3 6 -5 1 -5 -13z"/>
<path d="M3116 3099 c-25 -28 -46 -55 -46 -61 0 -5 -16 -44 -35 -86 -20 -41
-34 -81 -31 -86 7 -19 114 103 145 166 55 109 37 145 -33 67z"/>
<path d="M4750 3096 c0 -13 22 -92 50 -177 27 -85 55 -171 62 -192 43 -137 33
60 -10 208 -15 48 -83 185 -93 185 -5 0 -9 -11 -9 -24z"/>
<path d="M3246 2908 c-45 -60 -116 -228 -116 -275 0 -8 -7 -36 -16 -64 -18
-53 -13 -109 10 -128 20 -16 23 -1 25 103 1 49 6 97 11 107 6 10 10 27 10 38
0 12 4 29 9 39 6 9 21 43 36 75 25 56 45 74 45 40 -1 -26 -28 -121 -30 -103
-3 35 -19 -34 -29 -124 -22 -191 -11 -288 32 -302 19 -6 57 25 57 45 0 20 22
22 41 5 21 -18 128 -28 139 -12 3 4 35 8 70 9 51 2 78 -3 128 -25 58 -25 71
-26 145 -21 45 3 104 3 130 0 40 -6 47 -10 42 -25 -6 -20 3 -50 16 -50 5 0 9
16 9 35 0 34 7 40 38 36 7 -1 28 7 46 18 67 42 164 20 202 -44 10 -16 28 -38
40 -48 13 -10 26 -26 29 -37 9 -27 19 -25 33 5 15 32 42 23 42 -15 0 -38 25
-58 39 -31 6 11 11 31 11 44 0 14 7 27 15 31 12 4 15 -6 15 -58 0 -43 5 -67
15 -76 23 -19 35 -2 35 51 0 75 37 57 48 -23 12 -93 7 -146 -17 -165 -12 -10
-28 -29 -36 -43 -20 -36 -135 -271 -135 -276 0 -3 -18 -42 -40 -88 -22 -45
-40 -90 -40 -99 0 -24 -27 -21 -33 3 -3 12 -14 20 -27 20 -14 0 -21 6 -19 18
3 37 0 43 -20 32 -11 -5 -45 -10 -76 -10 -35 0 -54 -4 -50 -10 3 -5 19 -10 34
-10 75 0 139 -59 125 -116 -5 -19 -11 -24 -26 -20 -28 7 -58 -14 -58 -41 0
-32 -19 -38 -29 -10 -6 14 -20 35 -32 46 -42 39 -42 41 -23 -144 3 -28 9 -57
14 -65 16 -24 32 8 25 52 -3 20 -1 40 5 43 5 3 10 -1 10 -9 0 -19 16 -21 23
-3 2 6 7 -11 11 -40 4 -29 5 -56 2 -61 -8 -13 13 -82 24 -82 6 0 10 26 10 58
0 31 3 82 7 112 9 77 21 38 22 -72 1 -51 5 -88 11 -88 5 0 12 10 14 23 4 17
17 217 19 294 0 7 4 10 9 7 4 -3 8 -25 8 -49 0 -24 5 -47 10 -50 6 -3 10 -1
10 5 0 7 12 24 28 38 15 15 39 43 53 62 36 49 112 206 129 265 7 28 21 60 31
73 9 12 15 31 12 42 -5 18 13 89 36 145 31 74 40 139 21 150 -5 3 -10 17 -10
31 0 14 -7 32 -16 41 -8 9 -13 22 -10 29 3 7 1 16 -4 19 -6 4 -10 17 -10 30 0
13 -4 34 -9 47 -5 13 -15 50 -21 83 -7 33 -21 89 -32 125 -11 36 -21 77 -22
92 -3 33 -16 50 -16 20 0 -29 -6 -28 -54 11 -23 19 -52 40 -66 47 -14 7 -29
19 -33 26 -4 8 -14 14 -21 14 -7 0 -21 9 -31 20 -10 11 -26 20 -35 20 -10 0
-23 13 -30 30 -15 37 -36 34 -33 -4 1 -21 -2 -26 -12 -22 -22 8 -34 -23 -29
-77 2 -34 -2 -59 -16 -85 l-20 -37 22 -6 c13 -3 26 -4 31 -2 4 2 7 36 7 74 0
62 2 70 18 67 14 -3 17 -17 20 -87 2 -50 -2 -88 -8 -96 -8 -9 -27 -12 -61 -9
-78 6 -89 16 -89 79 0 49 3 56 28 72 54 33 64 64 40 130 -17 45 -26 41 -33
-14 -3 -27 -7 -54 -8 -62 -1 -8 -8 -16 -14 -19 -9 -2 -13 10 -13 42 0 24 -4
47 -9 50 -17 11 -34 -95 -28 -181 4 -69 2 -85 -10 -90 -24 -9 -30 12 -25 90
10 150 10 152 -17 152 -19 0 -27 -7 -33 -30 -6 -22 -4 -33 6 -40 21 -16 21
-174 -1 -182 -9 -3 -24 -1 -34 5 -25 16 -39 15 -39 -3 0 -24 -27 -18 -34 8 -3
12 -3 68 1 123 3 56 3 110 -1 119 -6 16 -8 17 -24 1 -24 -21 -30 -20 -34 7 -2
12 -10 22 -18 22 -12 0 -15 -20 -16 -115 0 -63 4 -123 8 -133 17 -34 28 -5 28
73 0 43 4 81 9 84 13 9 17 -30 11 -119 -5 -78 -6 -80 -29 -77 -43 6 -54 26
-46 88 8 70 0 94 -29 94 -18 0 -25 7 -30 32 -8 39 0 48 18 22 30 -40 47 20 18
64 -10 15 -49 3 -76 -23 -15 -15 -106 -60 -258 -128 -43 -19 -65 -47 -37 -47
8 0 9 -12 4 -37 -4 -21 -7 -55 -6 -76 1 -27 -3 -39 -15 -44 -25 -9 -34 15 -34
100 0 62 -3 77 -15 77 -11 0 -16 -12 -17 -42 -2 -59 1 -127 8 -164 7 -36 -19
-55 -35 -26 -13 25 -19 257 -8 278 6 10 10 32 9 50 -1 18 3 36 8 39 6 4 10 -7
10 -24 0 -37 22 -41 37 -8 8 16 8 58 3 127 -4 57 -6 109 -3 117 10 25 -16 13
-41 -19z m369 -265 c-4 -21 -11 -43 -16 -50 -7 -7 -6 -14 1 -18 5 -3 10 -21
10 -40 0 -32 13 -54 23 -38 3 5 8 30 12 58 3 27 11 55 17 62 12 14 29 8 27
-10 -6 -50 3 -99 22 -118 17 -17 19 -23 8 -30 -23 -14 -61 -10 -74 8 -11 15
-14 14 -35 -7 -21 -21 -23 -22 -33 -5 -13 23 -13 141 0 157 6 7 13 25 17 41
10 43 29 34 21 -10z m682 8 c7 -11 10 -36 8 -58 -4 -30 -3 -33 4 -13 6 18 8
-1 9 -63 l0 -89 -26 7 c-40 10 -46 20 -33 56 6 17 11 65 11 105 0 76 6 88 27
55z m83 -33 c17 -25 36 -44 73 -75 26 -22 36 -53 17 -53 -5 0 -14 9 -20 21
-18 33 -22 15 -11 -47 14 -72 5 -84 -43 -59 -30 16 -36 26 -40 60 -6 61 -5
175 3 175 4 0 13 -10 21 -22z m-920 -34 c0 -13 -4 -24 -9 -24 -13 0 -24 37
-16 50 10 16 25 1 25 -26z m-52 -100 c-2 -71 -6 -89 -18 -89 -12 0 -15 15 -15
80 1 88 9 125 26 108 5 -5 9 -48 7 -99z m131 14 c1 -66 0 -68 -24 -68 -18 0
-25 5 -25 20 0 11 -4 20 -10 20 -5 0 -10 -13 -10 -30 0 -30 -13 -40 -25 -20
-9 15 6 121 16 114 5 -3 9 -16 9 -30 0 -13 5 -24 10 -24 6 0 10 15 10 33 0 17
3 42 6 54 5 18 9 20 24 11 14 -9 18 -26 19 -80z m971 -57 c5 -11 10 -30 9 -43
0 -15 -3 -18 -6 -8 -3 8 -12 19 -19 23 -16 9 -19 47 -4 47 5 0 14 -9 20 -19z
m-405 -33 c14 -6 25 -14 25 -18 0 -18 -108 -33 -271 -37 -180 -6 -219 0 -219
32 0 13 29 15 178 16 97 1 191 5 207 9 44 11 52 11 80 -2z m315 -98 c0 -5 -7
-7 -15 -4 -8 4 -15 8 -15 10 0 2 7 4 15 4 8 0 15 -4 15 -10z m-50 -35 c0 -8
-4 -15 -10 -15 -5 0 -10 7 -10 15 0 8 5 15 10 15 6 0 10 -7 10 -15z m231 -383
c-6 -2 -11 -10 -11 -18 0 -44 -44 -158 -130 -339 -37 -77 -70 -153 -74 -169
-6 -25 -9 -27 -21 -15 -20 20 -11 47 102 289 24 52 48 104 52 115 31 78 86
176 90 160 2 -11 -2 -21 -8 -23z"/>
<path d="M4372 2505 c-2 -68 11 -85 29 -38 14 38 8 97 -11 101 -13 2 -16 -10
-18 -63z"/>
<path d="M4174 2894 c3 -9 9 -33 12 -55 4 -21 12 -39 19 -39 12 0 7 53 -10 93
-9 21 -29 23 -21 1z"/>
<path d="M4498 2868 c-2 -13 0 -34 4 -48 4 -14 17 -55 28 -92 11 -37 20 -90
20 -117 0 -27 5 -53 10 -56 6 -3 10 -17 10 -30 0 -13 5 -27 11 -31 7 -4 10 8
9 37 -2 24 -2 61 -1 83 l1 38 18 -22 c16 -19 21 -21 41 -11 12 7 30 9 41 6 10
-3 21 -1 24 4 4 6 13 8 21 4 11 -4 15 3 15 26 0 17 5 31 10 31 6 0 10 -14 10
-31 0 -20 4 -29 12 -27 14 5 12 75 -2 93 -4 6 -13 27 -20 48 -6 21 -14 36 -17
33 -3 -2 -7 -35 -9 -72 -2 -37 -6 -69 -8 -71 -2 -2 -7 22 -10 54 -8 73 -28
143 -39 143 -5 0 -7 -10 -3 -23 13 -51 18 -187 7 -187 -6 0 -11 12 -11 26 0
15 -4 43 -10 63 -5 20 -12 52 -15 72 -3 19 -12 44 -21 55 -14 18 -15 16 -9
-26 13 -84 15 -170 5 -170 -6 0 -10 26 -10 59 0 33 -4 63 -10 66 -5 3 -10 19
-10 36 0 19 -5 29 -15 29 -19 0 -19 -14 0 -76 17 -57 21 -128 5 -104 -5 8 -10
27 -10 41 0 14 -9 44 -20 67 -11 22 -20 47 -20 54 0 7 -7 21 -15 31 -13 18
-14 17 -17 -5z"/>
<path d="M4774 2865 c2 -16 11 -57 20 -90 8 -33 15 -79 16 -101 0 -26 5 -44
14 -47 27 -10 33 12 19 66 -7 28 -13 59 -13 67 0 9 -14 43 -30 76 -23 45 -29
52 -26 29z"/>
<path d="M2528 2798 c-21 -32 -22 -64 -3 -98 l13 -25 7 26 c3 14 5 47 3 74
l-3 49 -17 -26z"/>
<path d="M4470 2742 c0 -6 9 -26 21 -44 l21 -33 -7 30 c-7 31 -35 69 -35 47z"/>
<path d="M3885 2710 c-8 -26 3 -113 20 -153 l12 -29 6 31 c4 17 3 41 -2 53 -4
12 -3 34 3 50 7 20 7 33 0 45 -16 25 -32 27 -39 3z"/>
<path d="M2831 2658 c0 -7 4 -22 9 -33 7 -17 9 -15 9 13 1 17 -3 32 -9 32 -5
0 -10 -6 -9 -12z"/>
<path d="M4502 2647 c-6 -7 -7 -19 -3 -26 6 -9 11 -10 15 -2 4 6 4 11 -1 11
-4 0 -2 4 6 9 8 5 9 11 3 15 -5 3 -14 0 -20 -7z"/>
<path d="M2527 2638 c-2 -7 -1 -22 4 -33 6 -16 8 -14 8 13 1 33 -4 41 -12 20z"/>
<path d="M3010 2531 c0 -28 5 -51 10 -51 6 0 10 20 10 44 0 25 -4 48 -10 51
-6 4 -10 -13 -10 -44z"/>
<path d="M2530 2469 c0 -64 35 -122 121 -203 39 -36 73 -66 75 -66 11 0 -58
88 -101 130 -54 52 -75 88 -75 127 0 15 -5 35 -10 43 -7 11 -10 2 -10 -31z"/>
<path d="M2393 2418 c3 -13 9 -61 13 -108 6 -80 25 -167 74 -340 12 -41 28
-100 36 -130 18 -61 48 -125 65 -136 8 -4 8 -1 1 12 -20 40 -53 145 -68 220
-9 44 -20 97 -26 119 -5 22 -13 60 -18 85 -12 63 -27 126 -45 190 -8 30 -15
67 -15 83 0 15 -5 27 -11 27 -7 0 -9 -9 -6 -22z"/>
<path d="M3928 2273 c7 -3 16 -2 19 1 4 3 -2 6 -13 5 -11 0 -14 -3 -6 -6z"/>
<path d="M3800 2259 c1 -8 7 -25 14 -39 16 -27 5 -60 -18 -60 -16 0 -30 59
-20 84 3 9 2 16 -4 16 -5 0 -13 -30 -17 -66 -4 -42 -17 -85 -35 -120 -16 -30
-25 -54 -19 -54 5 0 9 -13 9 -29 0 -23 5 -30 22 -33 11 -2 22 -11 24 -20 1
-13 -7 -19 -32 -24 -19 -3 -38 -4 -41 0 -3 3 -12 -3 -20 -14 -8 -12 -25 -20
-41 -20 -17 0 -34 -9 -46 -25 -10 -14 -25 -25 -32 -25 -19 0 -18 -15 2 -34 19
-19 31 -20 37 -3 3 6 6 2 6 -10 1 -13 5 -23 9 -23 5 0 24 -14 42 -30 19 -17
46 -34 60 -37 33 -8 141 -120 133 -139 -3 -9 -13 -12 -23 -9 -9 3 -23 -1 -29
-9 -11 -13 -8 -16 13 -22 16 -4 31 -1 40 9 8 8 35 18 60 21 25 4 48 12 52 17
6 10 -30 69 -70 115 -10 13 -29 25 -41 28 -13 3 -26 15 -30 25 -3 11 -13 22
-23 26 -33 12 -101 70 -102 86 0 12 10 16 41 16 33 0 43 -4 47 -20 4 -17 7
-18 16 -4 18 23 53 25 70 2 9 -11 16 -14 16 -7 0 18 31 15 46 -5 13 -17 13
-17 14 0 0 24 15 21 28 -5 6 -13 11 -18 11 -13 1 6 27 9 61 8 33 0 60 2 60 5
9 124 1 174 -25 152 -12 -10 -15 -10 -15 0 0 7 -7 10 -15 6 -18 -6 -41 29 -25
39 5 3 15 3 21 -1 8 -5 10 2 7 22 -3 16 -11 63 -18 104 -13 73 -30 116 -30 73
0 -26 -16 -39 -24 -21 -5 10 -7 10 -12 1 -3 -7 -13 -13 -22 -13 -15 0 -15 2
-2 10 8 5 10 10 4 10 -5 0 -10 12 -10 27 1 22 -4 26 -29 29 -16 1 -45 6 -62 9
-25 6 -33 4 -33 -6z m90 -30 c0 -5 5 -7 10 -4 12 7 12 -22 0 -50 -8 -19 -9
-19 -9 3 -1 19 -5 21 -26 16 -27 -7 -35 12 -13 34 15 15 38 16 38 1z m-85
-126 c-7 -17 -8 -17 -15 2 -9 24 -2 41 12 27 6 -6 7 -19 3 -29z m180 27 c3 -5
1 -10 -4 -10 -6 0 -11 5 -11 10 0 6 2 10 4 10 3 0 8 -4 11 -10z m-123 -104 c0
-24 4 -36 12 -33 6 2 11 11 11 20 0 9 6 22 13 29 9 9 12 5 12 -24 0 -27 5 -37
20 -41 16 -4 20 0 20 21 0 19 3 23 9 13 13 -21 1 -50 -23 -53 -13 -2 -22 -11
-24 -26 -3 -20 -6 -21 -19 -10 -9 7 -31 14 -51 15 -68 4 -82 21 -33 40 23 8
29 15 24 32 -3 12 0 28 7 36 6 8 8 20 4 27 -5 10 -4 10 6 2 6 -7 12 -28 12
-48z m-88 5 c3 -5 -1 -11 -9 -15 -9 -3 -15 0 -15 9 0 16 16 20 24 6z m30 -36
c-4 -8 -8 -15 -10 -15 -2 0 -4 7 -4 15 0 8 4 15 10 15 5 0 7 -7 4 -15z m146
-96 c0 -24 -4 -38 -10 -34 -5 3 -10 24 -10 46 0 24 4 38 10 34 6 -3 10 -24 10
-46z m-300 -63 c0 -11 -19 -15 -25 -6 -3 5 1 10 9 10 9 0 16 -2 16 -4z m165
-186 c7 0 15 -7 19 -15 3 -8 17 -20 30 -25 24 -9 55 -50 39 -50 -24 0 -114 83
-112 104 0 6 3 5 6 -1 2 -7 11 -13 18 -13z"/>
<path d="M2600 2126 c0 -9 7 -19 15 -23 25 -9 27 2 5 22 -18 17 -20 17 -20 1z"/>
<path d="M2770 2098 c0 -14 49 -187 68 -242 23 -63 86 -168 111 -183 10 -6 0
23 -24 71 -57 115 -93 201 -117 276 -19 57 -38 97 -38 78z"/>
<path d="M3598 1963 c-8 -10 -13 -26 -10 -36 3 -17 5 -16 23 4 20 23 25 49 11
49 -5 0 -16 -8 -24 -17z"/>
<path d="M3660 1950 c0 -5 4 -10 9 -10 6 0 13 5 16 10 3 6 -1 10 -9 10 -9 0
-16 -4 -16 -10z"/>
<path d="M4111 1898 c1 -60 12 -92 32 -96 9 -2 17 2 17 9 0 8 7 3 16 -9 24
-35 34 -26 34 32 0 41 -4 55 -17 60 -9 4 -20 1 -24 -6 -8 -13 -8 -12 -24 37
-2 8 -11 15 -20 15 -11 0 -15 -11 -14 -42z"/>
<path d="M2667 1888 c-6 -19 11 -48 28 -48 18 0 20 31 3 48 -15 15 -25 15 -31
0z"/>
<path d="M4483 1889 c-7 -7 -13 -21 -13 -31 0 -10 -4 -18 -10 -18 -5 0 -10 5
-10 11 0 5 -4 7 -10 4 -5 -3 -10 -21 -10 -40 0 -19 -4 -36 -8 -39 -4 -2 -23
-43 -42 -90 -19 -47 -38 -86 -42 -86 -5 0 -8 14 -8 30 0 17 3 30 8 30 4 0 13
12 20 27 14 32 16 123 2 123 -5 0 -10 -16 -10 -35 0 -19 -4 -35 -10 -35 -5 0
-10 14 -10 30 0 17 -5 30 -10 30 -7 0 -10 -29 -9 -76 1 -42 -3 -79 -8 -83 -17
-11 -23 -102 -7 -108 8 -3 14 -12 14 -21 0 -40 37 24 157 275 34 71 43 129 16
102z"/>
<path d="M3504 1866 c-4 -10 -2 -22 4 -28 8 -8 13 -7 18 6 4 10 2 22 -4 28 -8
8 -13 7 -18 -6z"/>
<path d="M4240 1851 c-16 -31 -12 -75 10 -94 11 -9 20 -28 20 -42 0 -14 5 -25
10 -25 6 0 10 25 10 55 0 30 -4 55 -10 55 -5 0 -10 16 -10 35 0 39 -14 46 -30
16z"/>
<path d="M4301 1824 c0 -11 3 -14 6 -6 3 7 2 16 -1 19 -3 4 -6 -2 -5 -13z"/>
<path d="M4390 1815 c0 -14 5 -25 10 -25 6 0 10 11 10 25 0 14 -4 25 -10 25
-5 0 -10 -11 -10 -25z"/>
<path d="M4590 1663 c-8 -32 -15 -66 -17 -75 -1 -9 -16 -46 -33 -83 -32 -70
-36 -85 -20 -85 12 0 70 116 70 141 0 10 4 20 9 23 8 5 14 31 23 105 6 50 -19
29 -32 -26z"/>
<path d="M3910 1676 c0 -14 5 -26 10 -26 6 0 10 9 10 19 0 11 -4 23 -10 26 -6
4 -10 -5 -10 -19z"/>
<path d="M2996 1618 c22 -37 98 -106 162 -150 99 -67 133 -80 190 -73 112 14
193 29 198 36 3 5 16 9 29 9 28 0 55 9 55 19 0 4 -48 -1 -107 -11 -191 -34
-221 -34 -278 -3 -53 29 -107 67 -140 98 -11 11 -31 26 -45 35 -14 9 -31 25
-38 34 -15 20 -37 25 -26 6z"/>
<path d="M3740 1557 c0 -7 9 -13 20 -14 11 -1 20 4 20 10 0 7 -9 13 -20 14
-11 1 -20 -4 -20 -10z"/>
<path d="M3836 1505 c-38 -16 -22 -24 39 -19 98 7 139 15 124 25 -19 13 -127
9 -163 -6z"/>
<path d="M3675 1469 c5 -6 55 0 55 7 0 3 -13 3 -29 2 -16 -1 -28 -5 -26 -9z"/>
<path d="M3902 1384 c-17 -12 -22 -25 -22 -61 0 -39 2 -44 13 -31 16 22 57 6
57 -22 0 -11 5 -20 11 -20 6 0 9 14 7 33 -3 27 -7 32 -33 35 -16 2 -34 7 -38
12 -11 10 13 50 30 50 6 0 15 5 18 10 10 15 -18 12 -43 -6z"/>
<path d="M3630 1271 c0 -10 7 -35 16 -56 9 -22 13 -49 9 -66 -4 -18 -3 -29 4
-29 12 0 14 54 5 124 -4 29 -12 46 -20 46 -8 0 -14 -8 -14 -19z"/>
<path d="M3875 1248 c-8 -31 0 -48 21 -48 18 0 17 17 -1 50 l-13 25 -7 -27z"/>
<path d="M3571 1203 c0 -5 4 -17 9 -28 8 -18 9 -17 9 8 1 15 -3 27 -9 27 -5 0
-10 -3 -9 -7z"/>
<path d="M3535 1141 c-3 -5 -1 -12 5 -16 5 -3 10 1 10 9 0 18 -6 21 -15 7z"/>
<path d="M4132 1113 c2 -10 10 -18 18 -18 22 0 18 29 -3 33 -14 3 -18 -1 -15
-15z"/>
<path d="M3930 3015 c0 -8 4 -15 10 -15 5 0 7 7 4 15 -4 8 -8 15 -10 15 -2 0
-4 -7 -4 -15z"/>
<path d="M4983 1343 c-8 -3 -13 -22 -13 -44 0 -67 -20 -181 -50 -279 -16 -52
-34 -122 -40 -155 -7 -33 -16 -68 -21 -77 -5 -10 -9 -27 -9 -37 0 -11 -4 -23
-10 -26 -5 -3 -10 -15 -10 -25 0 -38 -110 -279 -160 -350 -19 -27 -32 -80 -20
-80 8 0 28 33 78 121 11 20 25 45 31 55 23 41 68 152 85 209 40 137 47 161 56
180 5 11 20 65 34 120 14 55 32 122 41 149 8 27 15 60 15 73 0 13 9 42 21 64
18 35 19 45 8 70 -13 33 -19 38 -36 32z"/>
<path d="M4340 975 c-7 -8 -18 -15 -26 -15 -7 0 -18 -9 -24 -20 -6 -11 -17
-20 -24 -20 -8 0 -17 -7 -20 -16 -3 -8 -10 -13 -15 -10 -4 3 -17 -4 -27 -16
-19 -21 -19 -21 8 -15 14 4 33 10 42 13 13 5 16 -1 16 -34 0 -23 5 -44 10 -47
6 -3 10 -39 10 -80 0 -41 5 -77 10 -80 6 -3 10 -24 10 -46 0 -28 4 -39 13 -36
6 2 11 12 10 21 -10 124 -10 164 0 161 17 -6 47 63 54 124 6 50 -11 131 -27
131 -4 0 -13 -7 -20 -15z m10 -70 c0 -8 -4 -15 -10 -15 -5 0 -10 7 -10 15 0 8
5 15 10 15 6 0 10 -7 10 -15z m-40 -34 c0 -17 -4 -33 -10 -36 -5 -3 -10 0 -10
7 0 7 -3 23 -6 36 -5 16 -2 22 10 22 11 0 16 -9 16 -29z m40 -26 c0 -19 -4
-35 -10 -35 -5 0 -10 16 -10 35 0 19 5 35 10 35 6 0 10 -16 10 -35z"/>
<path d="M3285 933 c-8 -23 -6 -78 4 -89 5 -5 13 -25 18 -44 5 -20 16 -36 26
-38 14 -3 17 6 17 56 0 45 4 63 19 76 28 25 35 4 17 -52 -17 -53 -23 -167 -11
-197 5 -11 26 -41 47 -66 l38 -46 81 -7 c63 -6 85 -5 95 6 12 12 12 17 -2 36
-17 25 -34 29 -34 7 0 -19 -39 -40 -52 -27 -5 5 -8 27 -6 48 2 30 7 38 20 36
14 -2 15 2 6 32 -13 41 -5 68 17 60 11 -5 15 1 14 22 0 16 -4 37 -7 47 -7 17
-9 16 -28 -5 -11 -13 -23 -32 -27 -42 -6 -14 -10 -16 -21 -7 -8 7 -25 9 -39 6
-37 -10 -43 21 -12 64 22 31 23 36 9 44 -11 6 -22 3 -38 -12 -24 -22 -46 -28
-46 -11 0 6 4 10 8 10 4 0 13 13 19 29 12 32 3 45 -43 69 -29 15 -82 12 -89
-5z m199 -272 c11 -13 16 -31 14 -53 -6 -45 -32 -49 -53 -7 -14 26 -15 36 -4
55 15 29 21 30 43 5z"/>
<path d="M4170 850 c0 -6 -4 -8 -10 -5 -5 3 -21 -5 -35 -19 -14 -15 -32 -26
-40 -26 -17 0 -20 -16 -5 -25 6 -3 10 -21 10 -40 0 -19 -4 -37 -10 -40 -6 -4
-10 8 -10 29 0 30 -4 36 -20 36 -17 0 -19 -4 -12 -16 12 -21 3 -56 -12 -51 -6
2 -12 18 -14 35 -4 35 -22 34 -22 -1 -1 -22 -1 -22 -23 3 -18 21 -31 25 -72
24 -27 0 -61 -6 -75 -14 -14 -7 -47 -15 -75 -16 -27 -1 -63 -7 -79 -13 -27
-11 -28 -14 -24 -64 7 -70 10 -79 32 -99 22 -21 30 -22 56 -8 13 7 28 7 46 0
21 -8 29 -8 36 2 6 10 8 10 8 -1 0 -10 11 -12 45 -9 33 4 45 2 45 -8 0 -7 5
-16 12 -20 7 -5 9 0 6 14 -8 28 19 53 33 31 5 -8 9 -20 9 -26 0 -26 20 -12 21
15 l1 27 7 -30 c6 -29 7 -30 61 -26 30 1 58 5 61 7 4 2 6 51 5 109 -2 71 1
104 8 102 7 -2 12 -45 14 -105 4 -144 22 -130 22 18 0 94 -3 120 -13 120 -9 0
-14 12 -15 30 0 23 6 33 25 44 17 8 22 16 14 20 -6 4 -11 2 -11 -4z m-80 -222
c0 -48 -10 -60 -17 -20 -3 19 6 72 13 72 2 0 4 -23 4 -52z m-41 -41 c1 -10 -3
-15 -9 -12 -5 3 -10 23 -9 43 1 33 2 34 9 12 4 -14 8 -33 9 -43z m54 -54 c7
-9 5 -13 -7 -13 -11 0 -16 8 -15 28 0 15 3 21 6 12 3 -8 10 -21 16 -27z m-55
-12 c-15 -5 -21 7 -13 26 7 17 8 17 15 -2 4 -11 3 -22 -2 -24z"/>
<path d="M4238 834 c-5 -4 -8 -19 -8 -33 0 -18 3 -22 11 -14 6 6 9 21 7 33 -1
12 -6 18 -10 14z"/>
<path d="M4168 805 c-3 -14 1 -33 8 -42 8 -11 14 -50 15 -103 1 -93 12 -155
22 -130 10 26 15 160 6 166 -5 3 -9 25 -9 50 0 70 -32 114 -42 59z"/>
<path d="M4245 673 c11 -121 10 -117 20 -123 14 -7 18 52 10 138 -5 55 -10 72
-22 72 -14 0 -15 -12 -8 -87z"/>
<path d="M3325 595 c8 -36 22 -55 41 -55 21 0 17 12 -17 50 l-31 35 7 -30z"/>
<path d="M2880 529 c0 -33 29 -85 55 -99 14 -7 27 -11 30 -8 10 9 -18 73 -43
101 -31 32 -42 34 -42 6z"/>
<path d="M2975 383 c-34 -63 -26 -142 25 -243 64 -129 74 -140 121 -140 21 0
39 2 39 5 0 3 -9 25 -21 48 -12 23 -26 66 -33 96 -9 44 -17 58 -41 71 -29 17
-30 19 -27 84 2 48 -2 73 -14 91 -9 14 -19 25 -23 25 -3 0 -15 -17 -26 -37z"/>
<path d="M4687 261 c-15 -16 -27 -36 -27 -45 0 -24 -32 -86 -42 -80 -4 3 -8
-4 -8 -15 0 -12 -4 -21 -10 -21 -16 0 -12 18 9 39 22 22 48 87 38 97 -11 12
-35 -16 -43 -49 -3 -17 -13 -42 -21 -54 -12 -17 -13 -30 -5 -51 6 -17 6 -35 1
-43 -15 -23 -10 -39 11 -39 11 0 20 6 20 13 0 7 27 64 60 127 74 143 80 188
17 121z"/>
<path d="M4537 53 c-4 -3 -7 -11 -7 -17 0 -6 5 -5 12 2 6 6 9 14 7 17 -3 3 -9
2 -12 -2z"/>
</g>
</svg>